<?xml version="1.0" encoding="utf-8"?>
<!-- Generator: Adobe Illustrator 16.0.0, SVG Export Plug-In . SVG Version: 6.00 Build 0)  -->
<!DOCTYPE svg PUBLIC "-//W3C//DTD SVG 1.1//EN" "http://www.w3.org/Graphics/SVG/1.1/DTD/svg11.dtd">
<svg version="1.1" id="Layer_1" xmlns="http://www.w3.org/2000/svg" xmlns:xlink="http://www.w3.org/1999/xlink" x="0px" y="0px"
	 width="719px" height="247px" viewBox="0 0 719 247" enable-background="new 0 0 719 247" xml:space="preserve">
<g>
	<defs>
		<path id="SVGID_1_" d="M652.223,105.832l-33.547,15.736V177.6l33.937,15.916c2.401,1.125,5.265,0.088,6.389-2.313
			c0.308-0.662,0.454-1.355,0.454-2.039l0.018-79.165c0-2.66-2.158-4.821-4.826-4.821
			C653.759,105.177,652.93,105.412,652.223,105.832 M217.343,214.858h32.507V82.96h-32.507V214.858z M279.164,214.858h32.507V82.96
			h-32.507V214.858z M497.807,149.042c0-25.044,17.321-39.703,38.906-39.703c51.16,0,51.16,79.676,0,79.676
			C515.128,189.015,497.807,174.093,497.807,149.042 M465.302,149.042c0,46.098,28.779,70.078,67.679,69.814
			c14.657-0.268,35.175-7.729,42.631-23.182l1.602,19.184h30.643V83.496h-31.179l-1.065,18.117
			C568.155,88.558,551.37,80.3,533.781,80.3c-0.215-0.002-0.438-0.003-0.652-0.003C495.067,80.296,465.302,103.999,465.302,149.042
			 M159.629,28.601h-4.354v27.568v158.689h32.238V28.601H159.629z M340.183,28.601v186.257h32.508v-59.419l51.425,59.419h39.171
			v-2.395l-61.021-67.147l53.559-59.956v-1.865h-38.902l-44.231,52.755V28.601H340.183z M214.41,46.456
			c0,25.314,38.372,25.314,38.372,0c0-12.655-9.593-18.983-19.186-18.983C224.004,27.473,214.41,33.801,214.41,46.456
			 M276.231,46.456c0,25.314,38.372,25.314,38.372,0c0-12.655-9.593-18.983-19.186-18.983S276.231,33.801,276.231,46.456
			 M75.043,76.569v8.792H50.528v28.512h24.515v100.985h32.509V113.873h23.926V85.361h-23.926v-8.792
			c0-15.987,8.523-23.453,19.716-23.453c1.412,0,2.817,0.11,4.21,0.323V25.515c-2.125-0.246-4.244-0.372-6.347-0.372
			C98.758,25.143,75.043,41.394,75.043,76.569"/>
	</defs>
	<clipPath id="SVGID_2_">
		<use xlink:href="#SVGID_1_"  overflow="visible"/>
	</clipPath>
	
		<linearGradient id="SVGID_3_" gradientUnits="userSpaceOnUse" x1="-245" y1="721.998" x2="-244" y2="721.998" gradientTransform="matrix(556.28 -485.82 -485.82 -556.28 487106.1875 282989.7813)">
		<stop  offset="0" style="stop-color:#013485"/>
		<stop  offset="1" style="stop-color:#50C6F4"/>
	</linearGradient>
	<polygon clip-path="url(#SVGID_2_)" fill="url(#SVGID_3_)" points="-45.578,109.076 395.986,-276.558 755.579,135.188 
		314.015,520.821 	"/>
</g>
</svg>
